<svg xmlns="http://www.w3.org/2000/svg" viewBox="0 0 1200 800">
  <defs>
    <linearGradient id="bg" x1="0" y1="0" x2="1" y2="1">
      <stop offset="0" stop-color="#130908"/>
      <stop offset="0.45" stop-color="#35170e"/>
      <stop offset="1" stop-color="#050608"/>
    </linearGradient>
    <radialGradient id="lamp" cx="36%" cy="34%" r="48%">
      <stop offset="0" stop-color="#e3a15a" stop-opacity="0.74"/>
      <stop offset="0.42" stop-color="#9d4028" stop-opacity="0.3"/>
      <stop offset="1" stop-color="#000" stop-opacity="0"/>
    </radialGradient>
    <radialGradient id="bloodGlow" cx="50%" cy="43%" r="38%">
      <stop offset="0" stop-color="#7d1414" stop-opacity="0.52"/>
      <stop offset="1" stop-color="#000" stop-opacity="0"/>
    </radialGradient>
    <filter id="shadow"><feDropShadow dx="0" dy="18" stdDeviation="16" flood-color="#000" flood-opacity="0.55"/></filter>
  </defs>
  <rect width="1200" height="800" fill="url(#bg)"/>
  <rect width="1200" height="800" fill="url(#lamp)"/>
  <rect width="1200" height="800" fill="url(#bloodGlow)"/>
  <path d="M0 610c170-64 300-22 470-55 238-46 430-28 730-95v340H0z" fill="#090605" opacity="0.86"/>
  <g filter="url(#shadow)">
    <path d="M390 150h420v565H390z" fill="#15100d"/>
    <path d="M432 190h336v525H432z" fill="#070607"/>
    <path d="M375 135h450v58H375z" fill="#2a1b12"/>
    <path d="M365 150h70v585h-70zM765 150h70v585h-70z" fill="#2b1b13"/>
  </g>
  <path d="M408 172c70 36 148 39 214 20 73-21 128-14 178 16" stroke="#8b1515" stroke-width="17" stroke-linecap="round" opacity="0.95"/>
  <path d="M402 180c-6 64-4 112 6 161M798 188c7 55 5 103-6 152" stroke="#8b1515" stroke-width="12" stroke-linecap="round" opacity="0.9"/>
  <g fill="#090606" opacity="0.94">
    <circle cx="300" cy="585" r="22"/><path d="M272 610h56l28 116H244z"/>
    <circle cx="900" cy="580" r="24"/><path d="M870 608h60l32 128H838z"/>
    <circle cx="600" cy="622" r="18"/><path d="M578 642h44l20 82h-84z"/>
  </g>
  <path d="M203 510c68-18 126-8 171 25" stroke="#d7b46a" stroke-opacity="0.13" stroke-width="11" fill="none"/>
  <path d="M812 518c74-30 142-20 198 28" stroke="#d7b46a" stroke-opacity="0.12" stroke-width="11" fill="none"/>
  <rect width="1200" height="800" fill="#000" opacity="0.08"/>
</svg>