<svg xmlns="http://www.w3.org/2000/svg" viewBox="0 0 1200 800">
  <defs>
    <linearGradient id="bg" x1="0" y1="0" x2="1" y2="1">
      <stop offset="0" stop-color="#2d180d"/>
      <stop offset="0.52" stop-color="#0f0b08"/>
      <stop offset="1" stop-color="#07131c"/>
    </linearGradient>
    <radialGradient id="heat" cx="33%" cy="42%" r="56%">
      <stop offset="0" stop-color="#d18443" stop-opacity="0.46"/>
      <stop offset="0.5" stop-color="#6d321d" stop-opacity="0.18"/>
      <stop offset="1" stop-color="#000" stop-opacity="0"/>
    </radialGradient>
    <filter id="shadow"><feDropShadow dx="0" dy="18" stdDeviation="14" flood-color="#000" flood-opacity="0.55"/></filter>
  </defs>
  <rect width="1200" height="800" fill="url(#bg)"/>
  <rect width="1200" height="800" fill="url(#heat)"/>
  <path d="M0 578c180-74 330-36 525-78 270-58 470-44 675-104v404H0z" fill="#100b08" opacity="0.93"/>
  <g opacity="0.64">
    <rect x="72" y="610" width="124" height="44" fill="#7b4428"/><rect x="208" y="610" width="124" height="44" fill="#4d2b1d"/>
    <rect x="140" y="664" width="124" height="44" fill="#9f5a34"/><rect x="276" y="664" width="124" height="44" fill="#5e3523"/>
    <rect x="850" y="590" width="134" height="48" fill="#6d3a24"/><rect x="996" y="590" width="134" height="48" fill="#3f251a"/>
    <rect x="923" y="648" width="134" height="48" fill="#8a4a2b"/>
  </g>
  <g filter="url(#shadow)">
    <path d="M410 270h390v390H410z" fill="#17100c" opacity="0.92"/>
    <path d="M450 312h310v296H450z" fill="#070606" opacity="0.9"/>
    <path d="M480 350h250M480 400h250M480 450h250M480 500h250" stroke="#d7b46a" stroke-opacity="0.12" stroke-width="8"/>
    <path d="M392 252h430" stroke="#7b4a2b" stroke-width="26" stroke-linecap="round"/>
  </g>
  <g fill="#050505" opacity="0.92">
    <circle cx="340" cy="555" r="22"/><path d="M314 579h52l27 126H286z"/>
    <circle cx="600" cy="610" r="18"/><path d="M579 630h42l20 88h-82z"/>
    <circle cx="835" cy="552" r="24"/><path d="M806 578h58l30 140H774z"/>
  </g>
  <path d="M278 522c64-40 128-48 190-18" stroke="#d7b46a" stroke-opacity="0.11" stroke-width="12" fill="none"/>
  <path d="M762 522c86-36 158-32 226 20" stroke="#d7b46a" stroke-opacity="0.11" stroke-width="12" fill="none"/>
  <rect width="1200" height="800" fill="#000" opacity="0.12"/>
</svg>