<svg xmlns="http://www.w3.org/2000/svg" viewBox="0 0 1200 800">
  <defs>
    <linearGradient id="sky" x1="0" y1="0" x2="1" y2="1">
      <stop offset="0" stop-color="#1b1511"/><stop offset=".55" stop-color="#4c2a18"/><stop offset="1" stop-color="#101820"/>
    </linearGradient>
    <radialGradient id="light" cx="30%" cy="35%" r="55%"><stop offset="0" stop-color="#d68a42" stop-opacity=".55"/><stop offset="1" stop-color="#000" stop-opacity="0"/></radialGradient>
  </defs>
  <rect width="1200" height="800" fill="url(#sky)"/>
  <rect width="1200" height="800" fill="url(#light)"/>
  <path d="M0 520c180-70 310 30 470-35 210-86 380 10 730-120v435H0z" fill="#211510"/>
  <g opacity=".75">
    <rect x="90" y="575" width="90" height="38" fill="#9a5532"/><rect x="190" y="575" width="90" height="38" fill="#7e4429"/>
    <rect x="140" y="622" width="90" height="38" fill="#b1653c"/><rect x="240" y="622" width="90" height="38" fill="#7e4429"/>
    <rect x="820" y="560" width="100" height="42" fill="#8d4d2d"/><rect x="930" y="560" width="100" height="42" fill="#6d3a24"/>
  </g>
  <g fill="#0c0907">
    <circle cx="420" cy="500" r="22"/><path d="M390 525c32-12 58-12 90 0l-20 90h-50z"/>
    <circle cx="505" cy="520" r="17"/><path d="M480 540c27-10 50-10 76 0l-15 70h-46z"/>
    <circle cx="690" cy="485" r="20"/><path d="M665 507c30-10 56-10 82 0l-18 82h-48z"/>
  </g>
  <path d="M150 230h170l36 190H110z" fill="#15100c" opacity=".58"/><path d="M170 250h130" stroke="#d7b46a" stroke-opacity=".18" stroke-width="8"/>
  <path d="M975 150h70v350h-70zM920 235h185v45H920z" fill="#17100c" opacity=".65"/>
</svg>
