<svg xmlns="http://www.w3.org/2000/svg" viewBox="0 0 1200 800">
  <defs>
    <linearGradient id="bg" x1="0" y1="0" x2="1" y2="1">
      <stop offset="0" stop-color="#060608"/>
      <stop offset="0.55" stop-color="#0d0b10"/>
      <stop offset="1" stop-color="#020305"/>
    </linearGradient>
    <radialGradient id="thinLight" cx="28%" cy="32%" r="48%">
      <stop offset="0" stop-color="#9e8a5a" stop-opacity="0.22"/>
      <stop offset="0.5" stop-color="#2a241d" stop-opacity="0.08"/>
      <stop offset="1" stop-color="#000" stop-opacity="0"/>
    </radialGradient>
    <radialGradient id="blue" cx="70%" cy="22%" r="52%">
      <stop offset="0" stop-color="#2f6177" stop-opacity="0.2"/>
      <stop offset="1" stop-color="#000" stop-opacity="0"/>
    </radialGradient>
  </defs>
  <rect width="1200" height="800" fill="url(#bg)"/>
  <rect width="1200" height="800" fill="url(#thinLight)"/>
  <rect width="1200" height="800" fill="url(#blue)"/>
  <g opacity="0.55">
    <path d="M148 230h120v390H148zM330 170h150v450H330zM560 260h110v360H560zM760 120h170v500H760zM990 250h92v370h-92z" fill="#050505"/>
    <path d="M136 230h145M312 170h188M744 120h206" stroke="#2a211b" stroke-width="12"/>
    <path d="M190 340h32M385 280h36M610 390h24M835 230h40M1022 356h22" stroke="#6f6045" stroke-opacity="0.12" stroke-width="8"/>
  </g>
  <path d="M0 610c240-52 460-24 664-72 205-48 348-60 536-34v296H0z" fill="#050505" opacity="0.9"/>
  <g fill="#010101" opacity="0.96">
    <circle cx="326" cy="575" r="20"/><path d="M302 598h48l25 112h-98z"/>
    <circle cx="592" cy="548" r="23"/><path d="M564 573h56l30 137H534z"/>
    <circle cx="840" cy="590" r="18"/><path d="M818 610h44l22 96h-88z"/>
  </g>
  <path d="M102 690c180-26 302-18 452-46 196-36 316-18 542-54" stroke="#d7b46a" stroke-opacity="0.055" stroke-width="18" fill="none"/>
  <rect width="1200" height="800" fill="#000" opacity="0.34"/>
</svg>