<svg xmlns="http://www.w3.org/2000/svg" viewBox="0 0 1200 800">
  <defs>
    <linearGradient id="bg" x1="0" y1="0" x2="1" y2="1">
      <stop offset="0" stop-color="#2d180d"/>
      <stop offset="0.48" stop-color="#12110f"/>
      <stop offset="1" stop-color="#06121c"/>
    </linearGradient>
    <radialGradient id="dust" cx="70%" cy="54%" r="56%">
      <stop offset="0" stop-color="#d59555" stop-opacity="0.55"/>
      <stop offset="0.45" stop-color="#8a4a2b" stop-opacity="0.2"/>
      <stop offset="1" stop-color="#000" stop-opacity="0"/>
    </radialGradient>
    <filter id="blur"><feGaussianBlur stdDeviation="3"/></filter>
  </defs>
  <rect width="1200" height="800" fill="url(#bg)"/>
  <rect width="1200" height="800" fill="url(#dust)"/>
  <path d="M0 600c210-84 386-34 606-76 236-45 382-91 594-106v382H0z" fill="#120c08" opacity="0.92"/>
  <path d="M650 520c140-82 272-104 435-78" stroke="#c27a40" stroke-opacity="0.28" stroke-width="70" fill="none" filter="url(#blur)"/>
  <g fill="#050505" opacity="0.86">
    <circle cx="244" cy="604" r="18"/><path d="M222 624h44l25 106h-94z"/>
    <circle cx="318" cy="628" r="15"/><path d="M300 646h36l20 82h-76z"/>
    <circle cx="406" cy="590" r="20"/><path d="M382 612h48l26 112h-100z"/>
    <circle cx="488" cy="622" r="16"/><path d="M469 640h38l20 88h-78z"/>
  </g>
  <g fill="#050505" opacity="0.92">
    <path d="M818 520h150l52 76H760z"/>
    <circle cx="820" cy="604" r="34"/><circle cx="974" cy="604" r="34"/>
    <path d="M834 492c46-44 88-54 132-20" stroke="#050505" stroke-width="20" stroke-linecap="round" fill="none"/>
    <path d="M970 508c54-14 98-46 132-96" stroke="#050505" stroke-width="18" stroke-linecap="round"/>
    <path d="M814 492c-26-40-44-78-52-116" stroke="#050505" stroke-width="15" stroke-linecap="round"/>
  </g>
  <path d="M1032 410c56 20 96 60 122 122" stroke="#d7b46a" stroke-opacity="0.23" stroke-width="8" fill="none"/>
  <path d="M710 500c-140 12-252 46-348 112" stroke="#d7b46a" stroke-opacity="0.08" stroke-width="18" fill="none"/>
  <rect width="1200" height="800" fill="#000" opacity="0.12"/>
</svg>