<svg xmlns="http://www.w3.org/2000/svg" viewBox="0 0 1200 800">
  <defs>
    <linearGradient id="sky" x1="0" y1="0" x2="0" y2="1">
      <stop offset="0" stop-color="#fff4c5"/>
      <stop offset="0.35" stop-color="#5ca1bd"/>
      <stop offset="1" stop-color="#06121f"/>
    </linearGradient>
    <radialGradient id="light" cx="50%" cy="8%" r="58%">
      <stop offset="0" stop-color="#fff9d8" stop-opacity="0.98"/>
      <stop offset="0.42" stop-color="#e7c675" stop-opacity="0.55"/>
      <stop offset="1" stop-color="#fff" stop-opacity="0"/>
    </radialGradient>
    <filter id="s"><feDropShadow dx="0" dy="12" stdDeviation="9" flood-color="#000" flood-opacity="0.45"/></filter>
  </defs>
  <rect width="1200" height="800" fill="url(#sky)"/>
  <rect width="1200" height="800" fill="url(#light)"/>
  <path d="M0 0c160 150 245 340 184 800H0z" fill="#07506e" opacity="0.86"/>
  <path d="M1200 0c-160 150-245 340-184 800h184z" fill="#07506e" opacity="0.86"/>
  <path d="M285 800c44-230 142-405 315-540 173 135 271 310 315 540z" fill="#b47c45" opacity="0.78"/>
  <path d="M600 56v210" stroke="#fff6c9" stroke-width="20" stroke-linecap="round" opacity="0.9"/>
  <path d="M236 290c116 82 156 244 112 435" stroke="#91d7eb" stroke-opacity="0.34" stroke-width="34" fill="none"/>
  <path d="M964 290c-116 82-156 244-112 435" stroke="#91d7eb" stroke-opacity="0.34" stroke-width="34" fill="none"/>
  <g fill="#18110c" opacity="0.92" filter="url(#s)">
    <circle cx="440" cy="608" r="15"/><path d="M422 626h36l18 82h-72z"/>
    <circle cx="510" cy="560" r="17"/><path d="M490 579h40l20 92h-80z"/>
    <circle cx="600" cy="520" r="22"/><path d="M575 544h50l26 118h-102z"/>
    <circle cx="690" cy="560" r="17"/><path d="M670 579h40l20 92h-80z"/>
    <circle cx="760" cy="608" r="15"/><path d="M742 626h36l18 82h-72z"/>
  </g>
  <path d="M466 702c100-35 184-35 268 0" stroke="#fff1bd" stroke-opacity="0.13" stroke-width="18" fill="none"/>
  <rect width="1200" height="800" fill="#fff" opacity="0.04"/>
</svg>