<svg xmlns="http://www.w3.org/2000/svg" viewBox="0 0 1920 1080" preserveAspectRatio="xMidYMid slice">
  <defs>
    <linearGradient id="bg" x1="0" y1="0" x2="1" y2="1">
      <stop offset="0" stop-color="#190d08"/>
      <stop offset="0.42" stop-color="#06121d"/>
      <stop offset="1" stop-color="#020407"/>
    </linearGradient>
    <radialGradient id="sea" cx="58%" cy="34%" r="58%">
      <stop offset="0" stop-color="#2382a4" stop-opacity="0.42"/>
      <stop offset="0.55" stop-color="#09243a" stop-opacity="0.2"/>
      <stop offset="1" stop-color="#000" stop-opacity="0"/>
    </radialGradient>
    <radialGradient id="fire" cx="22%" cy="62%" r="42%">
      <stop offset="0" stop-color="#d97835" stop-opacity="0.36"/>
      <stop offset="1" stop-color="#000" stop-opacity="0"/>
    </radialGradient>
  </defs>
  <rect width="1920" height="1080" fill="url(#bg)"/>
  <rect width="1920" height="1080" fill="url(#sea)"/>
  <rect width="1920" height="1080" fill="url(#fire)"/>
  <g opacity="0.42">
    <path d="M0 670c190-80 400-35 620-85 275-63 545-40 780-112 195-60 334-70 520-42v649H0z" fill="#071017"/>
    <path d="M0 805c250-72 500 8 770-42 300-55 590-10 1150-100" stroke="#62b6d0" stroke-opacity="0.18" stroke-width="34" fill="none"/>
    <path d="M0 898c260-45 520 14 800-18 310-36 580 20 1120-54" stroke="#d7b46a" stroke-opacity="0.08" stroke-width="20" fill="none"/>
  </g>
  <g opacity="0.28">
    <path d="M1250 190h86v500h-86zM1365 250h70v440h-70zM1480 150h108v540h-108z" fill="#050607"/>
    <path d="M1266 296h22M1266 370h22M1385 355h18M1515 240h26M1515 330h26" stroke="#d7b46a" stroke-width="7"/>
  </g>
  <path d="M0 0h1920v1080H0z" fill="#000" opacity="0.3"/>
</svg>