<svg xmlns="http://www.w3.org/2000/svg" viewBox="0 0 1920 1080" preserveAspectRatio="xMidYMid slice">
  <defs>
    <linearGradient id="base" x1="0" y1="0" x2="1" y2="1">
      <stop offset="0" stop-color="#23120c"/>
      <stop offset="0.42" stop-color="#06080c"/>
      <stop offset="1" stop-color="#071a27"/>
    </linearGradient>
    <radialGradient id="torch" cx="21%" cy="63%" r="42%">
      <stop offset="0" stop-color="#f29a48" stop-opacity="0.62"/>
      <stop offset="0.44" stop-color="#7c321c" stop-opacity="0.22"/>
      <stop offset="1" stop-color="#000" stop-opacity="0"/>
    </radialGradient>
    <radialGradient id="moon" cx="72%" cy="16%" r="34%">
      <stop offset="0" stop-color="#9ad2e2" stop-opacity="0.26"/>
      <stop offset="1" stop-color="#000" stop-opacity="0"/>
    </radialGradient>
    <filter id="soft"><feGaussianBlur stdDeviation="5"/></filter>
  </defs>
  <rect width="1920" height="1080" fill="url(#base)"/>
  <rect width="1920" height="1080" fill="url(#torch)"/>
  <rect width="1920" height="1080" fill="url(#moon)"/>
  <g opacity="0.64">
    <path d="M1080 120h120v650h-120zM1235 210h96v560h-96zM1385 82h150v688h-150zM1590 260h92v510h-92z" fill="#050506"/>
    <path d="M1068 120h145M1224 210h118M1372 82h176M1578 260h116" stroke="#d7b46a" stroke-opacity="0.09" stroke-width="10"/>
    <path d="M1120 252h34M1120 342h34M1270 330h26M1440 210h38M1440 316h38M1624 370h26" stroke="#f0b66a" stroke-opacity="0.17" stroke-width="8"/>
  </g>
  <path d="M0 766c260-98 450-36 665-88 266-65 505-42 772-105 205-48 342-92 483-78v585H0z" fill="#090706" opacity="0.96"/>
  <g opacity="0.68">
    <rect x="120" y="790" width="140" height="48" fill="#8a4a2b"/><rect x="276" y="790" width="140" height="48" fill="#5d3322"/>
    <rect x="198" y="850" width="140" height="48" fill="#a45a34"/><rect x="354" y="850" width="140" height="48" fill="#6d3a24"/>
    <rect x="1430" y="760" width="160" height="50" fill="#7a4228"/><rect x="1606" y="760" width="160" height="50" fill="#4d2a1c"/>
  </g>
  <g fill="#040404" opacity="0.88">
    <circle cx="560" cy="722" r="25"/><path d="M528 748h66l32 164H496z"/>
    <circle cx="650" cy="744" r="20"/><path d="M624 766h54l24 130H600z"/>
    <circle cx="805" cy="704" r="23"/><path d="M775 730h62l30 158H744z"/>
    <circle cx="985" cy="738" r="19"/><path d="M962 760h48l25 130h-96z"/>
  </g>
  <path d="M0 0h1920v1080H0z" fill="#000" opacity="0.22"/>
  <path d="M0 0h1920v1080H0z" fill="none" stroke="#d7b46a" stroke-opacity="0.07" stroke-width="32"/>
</svg>