<svg xmlns="http://www.w3.org/2000/svg" viewBox="0 0 1920 1080" preserveAspectRatio="xMidYMid slice">
  <defs>
    <linearGradient id="sky" x1="0" y1="0" x2="1" y2="1">
      <stop offset="0" stop-color="#2a180f"/>
      <stop offset="0.46" stop-color="#090b0e"/>
      <stop offset="1" stop-color="#071622"/>
    </linearGradient>
    <radialGradient id="torch" cx="20%" cy="68%" r="38%">
      <stop offset="0" stop-color="#e68037" stop-opacity="0.58"/>
      <stop offset="0.45" stop-color="#7d351d" stop-opacity="0.18"/>
      <stop offset="1" stop-color="#000" stop-opacity="0"/>
    </radialGradient>
    <radialGradient id="moon" cx="72%" cy="18%" r="32%">
      <stop offset="0" stop-color="#b6d7df" stop-opacity="0.24"/>
      <stop offset="1" stop-color="#000" stop-opacity="0"/>
    </radialGradient>
    <filter id="blur"><feGaussianBlur stdDeviation="2"/></filter>
  </defs>
  <rect width="1920" height="1080" fill="url(#sky)"/>
  <rect width="1920" height="1080" fill="url(#torch)"/>
  <rect width="1920" height="1080" fill="url(#moon)"/>
  <g opacity="0.58">
    <path d="M1130 160h110v560h-110zM1270 220h90v500h-90zM1405 110h130v610h-130zM1595 260h82v460h-82z" fill="#070708"/>
    <path d="M1125 160h120M1390 110h160M1580 260h112" stroke="#d7b46a" stroke-opacity="0.08" stroke-width="8"/>
    <path d="M1170 255h28M1170 325h28M1305 330h22M1460 210h30M1460 300h30M1630 360h22" stroke="#f0b66a" stroke-opacity="0.16" stroke-width="7"/>
  </g>
  <path d="M0 760c260-95 430-30 645-86 266-69 498-45 759-102 203-44 356-103 516-92v600H0z" fill="#0b0908" opacity="0.95"/>
  <g opacity="0.6">
    <rect x="116" y="785" width="130" height="46" fill="#8a4a2b"/><rect x="260" y="785" width="130" height="46" fill="#5d3322"/><rect x="188" y="842" width="130" height="46" fill="#a45a34"/><rect x="332" y="842" width="130" height="46" fill="#6d3a24"/>
    <rect x="1460" y="755" width="150" height="48" fill="#7a4228"/><rect x="1624" y="755" width="150" height="48" fill="#4d2a1c"/>
  </g>
  <g fill="#050505" opacity="0.85">
    <circle cx="560" cy="720" r="24"/><path d="M530 746h62l30 154h-122z"/>
    <circle cx="640" cy="738" r="19"/><path d="M616 760h50l24 122h-98z"/>
    <circle cx="790" cy="702" r="22"/><path d="M760 726h58l28 150h-112z"/>
    <circle cx="960" cy="735" r="18"/><path d="M938 755h46l24 126h-92z"/>
  </g>
  <path d="M0 0h1920v1080H0z" fill="none" stroke="#d7b46a" stroke-opacity="0.06" stroke-width="28"/>
  <rect width="1920" height="1080" fill="#000" opacity="0.18"/>
</svg>