<svg xmlns="http://www.w3.org/2000/svg" viewBox="0 0 1920 1080" preserveAspectRatio="xMidYMid slice">
  <defs>
    <linearGradient id="sky" x1="0" y1="0" x2="0" y2="1">
      <stop offset="0" stop-color="#101923"/>
      <stop offset="0.42" stop-color="#0a1118"/>
      <stop offset="1" stop-color="#020304"/>
    </linearGradient>
    <radialGradient id="moon" cx="76%" cy="12%" r="36%">
      <stop offset="0" stop-color="#d8b970" stop-opacity="0.32"/>
      <stop offset="0.35" stop-color="#6d7f91" stop-opacity="0.16"/>
      <stop offset="1" stop-color="#000000" stop-opacity="0"/>
    </radialGradient>
    <radialGradient id="fire" cx="18%" cy="58%" r="28%">
      <stop offset="0" stop-color="#c56b2f" stop-opacity="0.38"/>
      <stop offset="0.42" stop-color="#5b2c17" stop-opacity="0.22"/>
      <stop offset="1" stop-color="#000000" stop-opacity="0"/>
    </radialGradient>
    <linearGradient id="sea" x1="0" y1="0" x2="1" y2="0">
      <stop offset="0" stop-color="#0d171c"/>
      <stop offset="0.5" stop-color="#152934"/>
      <stop offset="1" stop-color="#0b141b"/>
    </linearGradient>
    <filter id="soft" x="-20%" y="-20%" width="140%" height="140%">
      <feGaussianBlur stdDeviation="3"/>
    </filter>
  </defs>
  <rect width="1920" height="1080" fill="url(#sky)"/>
  <rect width="1920" height="1080" fill="url(#moon)"/>
  <rect width="1920" height="1080" fill="url(#fire)"/>

  <g opacity="0.8">
    <path d="M0 620 C260 560 420 600 660 548 C860 506 980 494 1190 520 C1430 550 1660 500 1920 450 L1920 1080 L0 1080 Z" fill="#11151a"/>
    <path d="M760 610 C930 570 1170 590 1360 555 C1550 520 1740 480 1920 500 L1920 1080 L760 1080 Z" fill="url(#sea)" opacity="0.82"/>
    <path d="M820 664 C1000 628 1208 642 1398 620 C1590 598 1760 552 1920 578" fill="none" stroke="#8fb5bf" stroke-opacity="0.10" stroke-width="3"/>
    <path d="M830 704 C1030 675 1250 680 1450 650 C1620 624 1780 600 1920 612" fill="none" stroke="#d7b46a" stroke-opacity="0.09" stroke-width="2"/>
  </g>

  <g opacity="0.88">
    <rect x="110" y="370" width="360" height="420" fill="#08090a"/>
    <rect x="130" y="345" width="62" height="445" fill="#11100e"/>
    <rect x="224" y="312" width="74" height="478" fill="#12100e"/>
    <rect x="332" y="352" width="92" height="438" fill="#0f0f0f"/>
    <path d="M80 792 L500 792" stroke="#d7b46a" stroke-opacity="0.14" stroke-width="2"/>
    <g opacity="0.35">
      <rect x="150" y="390" width="280" height="20" fill="#7b4b29"/>
      <rect x="142" y="430" width="300" height="18" fill="#5c3b24"/>
      <rect x="158" y="468" width="268" height="18" fill="#7b4b29"/>
      <rect x="134" y="508" width="316" height="18" fill="#5c3b24"/>
      <rect x="160" y="548" width="260" height="18" fill="#7b4b29"/>
    </g>
  </g>

  <g opacity="0.7" filter="url(#soft)">
    <circle cx="205" cy="690" r="20" fill="#d27937" opacity="0.5"/>
    <circle cx="272" cy="700" r="16" fill="#d27937" opacity="0.32"/>
    <circle cx="350" cy="675" r="19" fill="#d27937" opacity="0.28"/>
  </g>

  <g opacity="0.38">
    <path d="M1260 420 L1302 360 L1344 420 Z" fill="#0b0d10"/>
    <rect x="1286" y="420" width="30" height="182" fill="#0b0d10"/>
    <path d="M1380 445 L1420 390 L1460 445 Z" fill="#0c0e11"/>
    <rect x="1405" y="445" width="28" height="155" fill="#0c0e11"/>
    <path d="M1495 430 L1540 365 L1584 430 Z" fill="#0b0d10"/>
    <rect x="1523" y="430" width="34" height="180" fill="#0b0d10"/>
  </g>

  <rect width="1920" height="1080" fill="#000" opacity="0.16"/>
</svg>
